<?xml version="1.0" encoding="UTF-8"?> <svg xmlns="http://www.w3.org/2000/svg" width="399" height="399" viewBox="0 0 399 399" fill="none"> <path d="M384.663 156.025C383.923 152.916 380.806 150.995 377.685 151.735C374.576 152.478 372.655 155.599 373.399 158.709C376.444 171.479 377.991 184.966 377.991 198.798C377.991 297.601 295.808 377.983 194.786 377.983C93.7652 377.983 11.582 297.601 11.582 198.798C11.582 99.9875 93.7652 19.6014 194.786 19.6014C235.019 19.6014 273.451 32.3325 305.923 56.4189C308.483 58.3234 312.117 57.7866 314.022 55.2181C315.926 52.6497 315.389 49.0236 312.821 47.1191C278.341 21.5377 237.524 8.02344 194.786 8.02344C87.3798 8.02344 0 93.6021 0 198.798C0 303.986 87.3798 389.565 194.786 389.565C302.193 389.565 389.573 303.986 389.573 198.798C389.573 184.067 387.919 169.678 384.663 156.025Z" fill="#7CC0FC"></path> <path d="M190.767 285.008C189.232 285.008 187.761 284.4 186.672 283.314L78.0761 174.735C75.8138 172.472 75.8138 168.807 78.0761 166.544C80.3345 164.282 84.0003 164.282 86.2626 166.544L190.524 270.79L387.486 50.1797C389.617 47.7941 393.275 47.5874 395.66 49.7185C398.046 51.8496 398.253 55.5075 396.125 57.8931L195.085 283.076C194.023 284.265 192.52 284.964 190.93 285.008C190.874 285.008 190.823 285.008 190.767 285.008Z" fill="#7CC0FC"></path> </svg> 